<?xml version="1.0" encoding="utf-8"?>
<!-- Svg Vector Icons : http://www.onlinewebfonts.com/icon -->
<!DOCTYPE svg PUBLIC "-//W3C//DTD SVG 1.1//EN" "http://www.w3.org/Graphics/SVG/1.1/DTD/svg11.dtd">
<svg version="1.1" xmlns="http://www.w3.org/2000/svg" xmlns:xlink="http://www.w3.org/1999/xlink" x="0px" y="0px" viewBox="0 0 1000 1000" enable-background="new 0 0 1000 1000" xml:space="preserve">
<metadata> Svg Vector Icons : http://www.onlinewebfonts.com/icon </metadata>
<g><path d="M846.6,153.4c-191.1-191.1-502.1-191.1-693.3,0c-191.1,191.2-191.1,502.1,0,693.3c191.2,191.1,502.2,191.1,693.3,0C1037.8,655.5,1037.8,344.5,846.6,153.4L846.6,153.4z M643.2,709.7c12.8,12.4,12.8,32.4,0,44.8c-6.4,6.2-14.8,9.3-23.1,9.3c-8.4,0-16.8-3.1-23.2-9.2L356.8,522.4c-12.8-12.4-12.8-32.4,0-44.8l240.1-232.1c12.8-12.4,33.5-12.4,46.3,0c12.8,12.3,12.8,32.4,0,44.8L426.3,500L643.2,709.7L643.2,709.7z"/></g>
</svg>